<svg width="453" height="567" viewBox="0 0 453 567" fill="none" xmlns="http://www.w3.org/2000/svg">
<rect width="453" height="566" fill="white"/>
<rect width="453" height="566" fill="#F8F7F5"/>
<g clip-path="url(#clip0_4930_702102)">
<rect width="453" height="566.251" fill="#F8F7F5"/>
</g>
<path fill-rule="evenodd" clip-rule="evenodd" d="M186.059 274.954L179.052 288.357C179.052 288.357 178.823 287.149 177.489 285.469L171.543 277.695C167.336 271.94 176.428 265.316 181.395 273.37L181.947 271.314C176.694 266.864 169.414 269.288 168.485 274.718C168.39 275.359 168.242 277.43 169.782 279.427L170.195 279.92C170.23 279.959 170.264 279.996 170.296 280.032L170.461 280.226C170.512 280.29 170.558 280.349 170.6 280.407L176.031 286.832C181.078 293.22 171.565 300.441 165.884 291.26L165.207 293.419C169.48 297.302 175.832 297.641 178.514 292.166L182.478 283.752H186.258L188.115 290.641H190.119C189.935 290.464 189.684 289.993 189.559 289.536L186.074 274.969L186.059 274.954ZM182.861 282.794L184.873 278.469L185.993 282.794H182.861Z" fill="black"/>
<path d="M169.782 279.427C169.908 279.589 170.048 279.758 170.195 279.92L169.782 279.427Z" fill="black"/>
<path d="M192.749 275.448L192.595 289.757C192.572 289.949 192.838 290.582 192.956 290.634H191.099L190.856 276.781C190.856 276.288 190.568 275.735 190.281 275.448H192.749Z" fill="black"/>
<path d="M256.743 289.72V283.715H262.262V282.801H256.743L256.89 276.199C260.589 276.221 262.262 277.047 262.262 277.047V275.499H254.37C254.37 275.499 254.835 275.956 254.871 277.047C254.871 277.047 255.026 290.56 255.026 290.604C254.812 290.31 249.286 283.531 249.286 283.531C253.855 282.661 257.126 273.613 243.952 275.544C244.195 275.846 244.408 276.288 244.416 277.15L244.055 289.389C243.996 289.897 243.871 290.383 243.716 290.604H245.772L246.494 276.008C251.6 274.674 253.884 282.61 247.12 283.848C247.455 284.243 250.711 287.69 252.803 289.904L252.803 289.904L252.815 289.916C253.754 290.91 254.456 291.653 254.547 291.754C255.381 292.661 257.514 293.483 258.335 293.799C258.414 293.829 258.481 293.855 258.533 293.876C257.325 293.132 255.483 291.164 255.262 290.796C255.741 290.803 262.667 290.796 262.667 290.796L263.308 289.366C263.308 289.366 261.061 290.17 257.458 290.17C257.438 290.17 257.419 290.17 257.398 290.17C257.112 290.172 256.758 290.175 256.758 289.727L256.743 289.72Z" fill="black"/>
<path d="M216.261 294.045C216.121 294.605 216.158 295.092 217.094 295.106C219.975 295.151 225.907 294.627 228.279 293.817L227.174 295.74H213.867C214.08 295.467 214.272 294.959 214.464 294.259L218.229 276.789C216.807 276.258 215.06 276.229 213.454 276.229L212.99 289.455C212.983 289.948 213.064 290.317 213.152 290.634H211.118C211.258 290.251 211.31 289.934 211.325 289.388L211.222 276.229H208.702C208.006 276.247 208.017 276.779 208.024 277.135C208.026 277.202 208.027 277.262 208.024 277.312L207.368 291.864L196.374 277.776V290.626H194.923C195.055 290.42 195.262 289.757 195.291 289.234L195.704 276.862L194.606 275.44H197.244L206.859 288.703V275.44H218.538L219.511 271.005C219.614 270.408 219.614 270.047 219.341 269.7H222.075L216.261 294.045Z" fill="black"/>
<path d="M240.636 286.036C240.621 291.754 234.373 291.584 234.358 286.331L234.336 275.507H231.941C232.258 275.676 232.428 276.288 232.472 277.032C232.496 277.206 232.547 280.002 232.594 282.592L232.594 282.595L232.594 282.596C232.633 284.729 232.669 286.72 232.685 286.986C233.047 292.41 240.864 293.426 241.336 286.382C241.353 286.088 241.425 284.58 241.502 282.977L241.503 282.974C241.596 281.04 241.696 278.968 241.712 278.727C241.8 277.43 241.955 275.853 242.39 275.507H240.651L240.643 286.036H240.636Z" fill="black"/>
<path fill-rule="evenodd" clip-rule="evenodd" d="M219.901 289.639L227.535 274.637H227.542L231.028 289.396C231.028 289.396 231.448 290.472 231.647 290.612H229.827C229.694 290.184 227.852 283.649 227.852 283.649H223.954C223.954 283.649 220.874 290.42 220.786 290.612H219.209C219.371 290.45 219.725 289.934 219.901 289.639ZM226.386 278.292L224.322 282.868H227.616L226.386 278.292Z" fill="black"/>
<path d="M275.613 275.588V288.851L265.997 275.588H263.36C263.5 275.757 264.347 276.84 264.465 277.002C264.465 277.386 264.052 289.374 264.052 289.374L264.051 289.396C264.03 289.938 264.013 290.359 263.824 290.774H265.135V277.924C265.135 277.924 275.937 291.732 276.129 292.004C276.151 291.474 276.674 277.43 276.674 277.43C276.674 277.113 276.674 276.229 277.529 276.229H280.27L280.358 289.742C280.333 290.192 280.28 290.359 280.196 290.626C280.182 290.67 280.167 290.716 280.152 290.766H282.097C282.001 290.413 281.95 290.221 281.972 289.742L282.458 276.221C284.094 276.221 285.118 276.221 286.585 276.664V275.58H275.62L275.613 275.588Z" fill="black"/>
<defs>
<clipPath id="clip0_4930_702102">
<rect width="453" height="566.251" fill="white"/>
</clipPath>
</defs>
</svg>
